{"title":"Citizenfour.2014.720p.WEB-DL.XviD.MP3-RARBG","uid":12113003,"size":3107724552,"categoryP":"video","categoryS":"hd___movies","magnet":"?xt=urn:btih:6fc9443c119e31d5d7dbf35169721412ce0566fc&amp;dn=Citizenfour.2014.720p.WEB-DL.XviD.MP3-RARBG&amp;tr=udp%3A%2F%2Ftracker.openbittorrent.com%3A80&amp;tr=udp%3A%2F%2Fopen.demonii.com%3A1337&amp;tr=udp%3A%2F%2Ftracker.coppersurfer.tk%3A6969&amp;tr=udp%3A%2F%2Fexodus.desync.com%3A6969","seeders":1,"leechers":0,"uploader":"vickey1992","files":4,"time":1436622283,"description":"Format                                   : AVI\nFormat/Info                              : Audio Video Interleave\nFormat profile                           : OpenDML\nFile size                                : 2.89 GiB\nDuration                                 : 1h 53mn\nOverall bit rate                         : 3 648 Kbps\nMovie name                               : RARBG.COM - Citizenfour.2014.720p.WEB-DL.XviD.MP3-RARBG\nWriting library                          : VirtualDub build 35491/release\nComment                                  : RARBG.COM - Citizenfour.2014.720p.WEB-DL.XviD.MP3-RARBG\n\nVideo\nID                                       : 0\nFormat                                   : MPEG-4 Visual\nFormat profile                           : Simple@L5\nFormat settings, BVOP                    : No\nFormat settings, QPel                    : No\nFormat settings, GMC                     : No warppoints\nFormat settings, Matrix                  : Default (H.263)\nCodec ID                                 : XVID\nCodec ID/Hint                            : XviD\nDuration                                 : 1h 53mn\nBit rate                                 : 3 442 Kbps\nWidth                                    : 1 280 pixels\nHeight                                   : 720 pixels\nDisplay aspect ratio                     : 16:9\nFrame rate                               : 23.976 fps\nColor space                              : YUV\nChroma subsampling                       : 4:2:0\nBit depth                                : 8 bits\nScan type                                : Progressive\nCompression mode                         : Lossy\nBits/(Pixel*Frame)                       : 0.156\nStream size                              : 2.73 GiB (94%)\nWriting library                          : Lavc56.13.100\n\nAudio\nID                                       : 1\nFormat                                   : MPEG Audio\nFormat version                           : Version 1\nFormat profile                           : Layer 3\nMode                                     : Joint stereo\nMode extension                           : MS Stereo\nCodec ID                                 : 55\nCodec ID/Hint                            : MP3\nDuration                                 : 1h 53mn\nBit rate mode                            : Constant\nBit rate                                 : 192 Kbps\nChannel(s)                               : 2 channels\nSampling rate                            : 44.1 KHz\nCompression mode                         : Lossy\nStream size                              : 156 MiB (5%)\nAlignment                                : Aligned on interleaves\nInterleave, duration                     : 26 ms (0.63 video frame)\nInterleave, preload duration             : 522 ms\nWriting library                          : LAME3.99.5","torrent":{"xt":"urn:btih:6fc9443c119e31d5d7dbf35169721412ce0566fc","amp;dn":"Citizenfour.2014.720p.WEB-DL.XviD.MP3-RARBG","amp;tr":["udp%3A%2F%2Ftracker.openbittorrent.com%3A80","udp%3A%2F%2Fopen.demonii.com%3A1337","udp%3A%2F%2Ftracker.coppersurfer.tk%3A6969","udp%3A%2F%2Fexodus.desync.com%3A6969"],"infoHash":"6fc9443c119e31d5d7dbf35169721412ce0566fc","infoHashBuffer":{"type":"Buffer","data":[111,201,68,60,17,158,49,213,215,219,243,81,105,114,20,18,206,5,102,252]},"announce":[],"urlList":[]}}